# xmcd
#
# Track frame offsets: 
#        150
#        15024
#        31544
#        52497
#        68060
#        84415
#        109714
#        126590
#        143363
#        164293
#
# Disc length: 2483 seconds
#
# Revision: 0
# Processed by: cddbd v1.5.2PL0 Copyright (c) Steve Scherf et al.
# Submitted via: ExactAudioCopyFreeDBPlugin 1.0
#
DISCID=7609b10a
DTITLE=Rebekka Thornbech - Wanderlust
DYEAR=2016
DGENRE=Country/pop
TTITLE0=Be my north
TTITLE1=We got time
TTITLE2=Heavy rain
TTITLE3=Rivers flow
TTITLE4=Sunshine follow me
TTITLE5=Beneath the northern lights
TTITLE6=Owners of a restless heart
TTITLE7=Fall
TTITLE8=Sail away
TTITLE9=What to make of this
EXTD=
EXTT0=
EXTT1=
EXTT2=
EXTT3=
EXTT4=
EXTT5=
EXTT6=
EXTT7=
EXTT8=
EXTT9=
PLAYORDER=
